_________________________  Visit us at _________________________
  
http://p2pdl.com  ____________________________  http://p2pdl.com

 
http://www.shotpix.com/images/22330689245074893108.jpg


Shadow Dancer 2012 BRRip 720p x264 AAC - ViZNU [P2PDL]
				
Genre: Thriller
Set in 1990s Belfast, an active member of the IRA becomes an informant for MI5 in order to protect her son's welfare.
Director: James Marsh
Stars:  Clive Owen, Andrea Riseborough and Gillian Anderson
Rated: No.

Imdb: http://www.imdb.com/title/tt1770734/

Trailer:


General
Format                         : MPEG-4
Format profile                 : Base Media / Version 2
Codec ID                       : mp42
File size                      : 584 MiB
Duration                       : 1h 41mn
Overall bit rate mode          : Variable
Movie name                     : The Shadow Dancer 2012 BRRip 720p x264 AAC - ViZNU [P2PDL]

Source                         : 720p.BluRay.X264-7SinS (Thanks)

Video
ID                             : 1
Format                         : AVC
Format/Info                    : Advanced Video Codec
Format profile                 : High@L4.1
Width                          : 1 280 pixels
Height                         : 544 pixels
Display aspect ratio           : 2.35:1
Frame rate mode                : Variable
Frame rate                     : 23.976 fps
Color space                    : YUV
Chroma subsampling             : 4:2:0
Bit depth                      : 8 bits
Scan type                      : Progressive
Bits/(Pixel*Frame)             : 0.042
Stream size                    : 510 MiB (87%)
Writing library                : x264 core 128

Audio
ID                             : 2
Format                         : AAC
Format/Info                    : Advanced Audio Codec
Bit rate mode                  : Variable
Bit rate                       : 96.0 Kbps
Channel(s)                     : 2 channels
Channel positions              : Front: L R
Sampling rate                  : 48.0 KHz
Stream size                    : 69.9 MiB (12%)
Language                       : English

Subtitle                       : Yes (English)


Screens:
 
http://www.shotpix.com/images/04522069593978153208.jpg 
http://www.shotpix.com/images/98093933528917069440.jpg 
http://www.shotpix.com/images/24583111313584388233.jpg 
http://www.shotpix.com/images/29201229446109844267.jpg 
http://www.shotpix.com/images/56191312764967344361.jpg

Thumbs:
 
http://www.shotpix.com/images/59810164191789977710.jpg

----------------------------------------------------------------------------------------------------


Recommend to you to use latest version of VLC player. Install K-Lite Codec Pack or shark007 codecs
in case of any kind of problem in playback (For non-VLC Media Player users). Alternatively, install
Core AVC codecs, the fastest decoder that there is coupled with Community Center Codec Pack and play
on Windows Media Player Classic. Check sample to be sure.
Enjoy!

Greets to: VYTO, a2zRG, Stumpie1971, Sheychi, TorDigger, Ash968, StyLishSaLH and staff members at
ExtraTorrent, TPB,KAT, 1337x, PublicHD, Ahashare, BTScene, SilverTorrent, LimeTorrents, TorrentMafia,
P2PDL, and all others.

Encoder Notes: Looking For Early Access To Anything You Can Provide DVDScr, R5, DVDR, BluRay, Direct
Audio, Early Music Releases, Seedboxes, Dedicated Servers anything u can provide, Advance / Promo CDs/
DVDs. If You Got anything to offer contact me at "prg@hush.com".

Facebook Fan Page: www . facebook . com / p2pdl